<svg width="72" height="72" viewBox="0 0 72 72" fill="none" xmlns="http://www.w3.org/2000/svg">
<path d="M63.5999 5.0772C63.6095 2.2764 61.3547 0 58.5695 0H13.6535C10.7447 0 8.3999 2.3772 8.3999 5.2836V66.7164C8.3999 69.642 10.7627 72 13.6535 72H58.1351C61.0439 72 63.3887 69.6228 63.3887 66.7164L63.5999 5.0772Z" fill="#D0AA9A"/>
<path d="M51.2961 34.134H17.6673C17.0049 34.134 16.4673 33.5964 16.4673 32.934C16.4673 32.2716 17.0049 31.734 17.6673 31.734H51.2961C51.9585 31.734 52.4961 32.2716 52.4961 32.934C52.4961 33.5964 51.9585 34.134 51.2961 34.134Z" fill="#EFEAE2"/>
<path d="M51.2961 43.422H17.6673C17.0049 43.422 16.4673 42.8844 16.4673 42.222C16.4673 41.5596 17.0049 41.022 17.6673 41.022H51.2961C51.9585 41.022 52.4961 41.5596 52.4961 42.222C52.4961 42.8844 51.9585 43.422 51.2961 43.422Z" fill="#EFEAE2"/>
<path d="M54.3327 62.4348H45.6819C45.0195 62.4348 44.4819 61.8972 44.4819 61.2348C44.4819 60.5724 45.0195 60.0348 45.6819 60.0348H54.3327C54.9951 60.0348 55.5327 60.5724 55.5327 61.2348C55.5327 61.8972 54.9963 62.4348 54.3327 62.4348Z" fill="#EFEAE2"/>
<path d="M27.5925 62.4348H17.6673C17.0049 62.4348 16.4673 61.8972 16.4673 61.2348C16.4673 60.5724 17.0049 60.0348 17.6673 60.0348H27.5925C28.2549 60.0348 28.7925 60.5724 28.7925 61.2348C28.7925 61.8972 28.2549 62.4348 27.5925 62.4348Z" fill="#EFEAE2"/>
<path d="M34.2921 25.5036H17.6673C17.0049 25.5036 16.4673 24.966 16.4673 24.3036C16.4673 23.6412 17.0049 23.1036 17.6673 23.1036H34.2921C34.9545 23.1036 35.4921 23.6412 35.4921 24.3036C35.4921 24.966 34.9545 25.5036 34.2921 25.5036Z" fill="#EFEAE2"/>
<path d="M33.8301 16.8744H17.6673C17.0049 16.8744 16.4673 16.3368 16.4673 15.6744C16.4673 15.012 17.0049 14.4744 17.6673 14.4744H33.8301C34.4925 14.4744 35.0301 15.012 35.0301 15.6744C35.0301 16.3368 34.4925 16.8744 33.8301 16.8744Z" fill="#EFEAE2"/>
<path d="M51.2961 52.584H17.6673C17.0049 52.584 16.4673 52.0464 16.4673 51.384C16.4673 50.7216 17.0049 50.184 17.6673 50.184H51.2961C51.9585 50.184 52.4961 50.7216 52.4961 51.384C52.4961 52.0464 51.9585 52.584 51.2961 52.584Z" fill="#EFEAE2"/>
<path d="M47.5489 17.9964C43.7557 17.9964 40.6885 21.0996 40.6885 24.9156V26.9424C40.6885 27.4896 41.1241 27.9288 41.6689 27.9288H53.4301C53.9749 27.9288 54.4105 27.4908 54.4105 26.9424V24.9348C54.4093 21.1008 51.3421 17.9964 47.5489 17.9964Z" fill="#E7482A"/>
<path d="M47.5492 16.7964C49.8026 16.7964 51.6292 14.9176 51.6292 12.6C51.6292 10.2824 49.8026 8.40359 47.5492 8.40359C45.2959 8.40359 43.4692 10.2824 43.4692 12.6C43.4692 14.9176 45.2959 16.7964 47.5492 16.7964Z" fill="white"/>
</svg>
