<svg width="96" height="96" viewBox="0 0 96 96" fill="none" xmlns="http://www.w3.org/2000/svg">
<g clip-path="url(#clip0)">
<path d="M28.1377 96C23.567 96 19.8618 92.2948 19.8618 87.7241V16.5517L19.443 16.2207C15.4857 12.9275 13.3226 7.95406 13.6119 2.81379C13.6648 1.21821 13.1865 0 11.5859 0H71.1721C73.367 0 75.472 0.871919 77.0241 2.42394C78.5761 3.97597 79.448 6.08097 79.448 8.27586V79.4483L28.1377 96Z" fill="#D0AA9A"/>
<path d="M19.8618 8.64003V16.5517H4.96523C4.0511 16.5517 3.31006 15.8107 3.31006 14.8966V8.27589C3.31284 4.66769 5.64848 1.47542 9.08661 0.380717C9.90109 0.127055 10.7494 -0.00130849 11.6025 2.71361e-05C11.8677 -0.00547108 12.1331 0.00558484 12.397 0.0331305C16.716 0.578732 19.9324 4.28724 19.8618 8.64003Z" fill="#E0CBAF"/>
<path d="M92.6899 81.1035V87.7242C92.6899 92.2948 88.9847 96.0001 84.414 96.0001H28.1382C30.3331 96.0001 32.4381 95.1282 33.9901 93.5761C35.5421 92.0241 36.414 89.9191 36.414 87.7242V81.1035C36.414 80.1894 37.1551 79.4484 38.0692 79.4484H91.0347C91.9488 79.4484 92.6899 80.1894 92.6899 81.1035Z" fill="#E0CBAF"/>
<path d="M36.414 16.5518H29.7934C28.8792 16.5518 28.1382 17.2928 28.1382 18.2069V24.8276C28.1382 25.7417 28.8792 26.4828 29.7934 26.4828H36.414C37.3282 26.4828 38.0692 25.7417 38.0692 24.8276V18.2069C38.0692 17.2928 37.3282 16.5518 36.414 16.5518Z" fill="white"/>
<path d="M52.9653 16.5518H46.3446C45.4305 16.5518 44.6895 17.2928 44.6895 18.2069V24.8276C44.6895 25.7417 45.4305 26.4828 46.3446 26.4828H52.9653C53.8794 26.4828 54.6205 25.7417 54.6205 24.8276V18.2069C54.6205 17.2928 53.8794 16.5518 52.9653 16.5518Z" fill="white"/>
<path d="M69.5171 16.5518H62.8964C61.9823 16.5518 61.2412 17.2928 61.2412 18.2069V24.8276C61.2412 25.7417 61.9823 26.4828 62.8964 26.4828H69.5171C70.4312 26.4828 71.1722 25.7417 71.1722 24.8276V18.2069C71.1722 17.2928 70.4312 16.5518 69.5171 16.5518Z" fill="white"/>
<path d="M79.4479 8.27586V79.4483H74.4824V8.27586C74.4824 6.08097 73.6105 3.97597 72.0585 2.42394C70.5064 0.871919 68.4014 0 66.2065 0H71.1721C75.7427 0 79.4479 3.70523 79.4479 8.27586Z" fill="#E0CBAF"/>
<path d="M92.6896 81.1035V87.7242C92.6896 92.2948 88.9844 96.0001 84.4138 96.0001H79.4482C84.0189 96.0001 87.7241 92.2948 87.7241 87.7242V81.1035C87.7241 80.1894 86.983 79.4484 86.0689 79.4484H91.0344C91.9486 79.4484 92.6896 80.1894 92.6896 81.1035Z" fill="#DC9563"/>
<path d="M19.8616 8.64003V16.5517H14.8961V8.64003C14.8963 7.0168 14.4496 5.42486 13.605 4.03865C12.5978 2.30696 10.9899 1.00531 9.08643 0.380717C9.90091 0.127055 10.7492 -0.00130849 11.6023 2.71361e-05C11.8675 -0.00547108 12.1329 0.00558484 12.3968 0.0331305C16.7158 0.578732 19.9322 4.28724 19.8616 8.64003Z" fill="#DC9563"/>
<path d="M71.1713 74.4827H47.9989C47.0848 74.4827 46.3438 73.7417 46.3438 72.8275C46.3438 71.9134 47.0848 71.1724 47.9989 71.1724H71.1713C72.0854 71.1724 72.8265 71.9134 72.8265 72.8275C72.8265 73.7417 72.0854 74.4827 71.1713 74.4827Z" fill="#E0CBAF"/>
<path d="M51.3096 67.8621C50.4736 67.8628 49.7683 67.24 49.6655 66.4104C49.5628 65.5807 50.0948 64.8046 50.9058 64.6014C51.8386 64.3346 52.7344 63.952 53.5722 63.4626C50.3 62.2213 49.6544 60.1788 49.6544 58.7586C49.6026 57.4128 50.1185 56.1072 51.0762 55.1603C51.9442 54.342 53.0961 53.8927 54.2889 53.9073C55.7556 53.9248 57.1512 54.5415 58.1517 55.6141C59.1521 56.6867 59.6701 58.1219 59.5855 59.5862C59.5867 60.1276 59.5262 60.6674 59.4051 61.1951C59.9678 61.2248 60.5819 61.2414 61.2406 61.2414H69.5165C70.4306 61.2414 71.1717 61.9824 71.1717 62.8966C71.1717 63.8107 70.4306 64.5517 69.5165 64.5517H61.2406C60.0538 64.557 58.8675 64.4979 57.687 64.3746C56.03 66.024 53.969 67.2094 51.7102 67.8124C51.5791 67.845 51.4446 67.8617 51.3096 67.8621ZM54.2889 57.2243C53.9512 57.2132 53.6219 57.3316 53.3686 57.5553C53.0822 57.8884 52.9372 58.3202 52.9648 58.7586C52.9648 59.3214 53.7096 60.2119 56.0732 60.7581C56.2068 60.3818 56.2751 59.9855 56.2751 59.5862C56.3524 59.0041 56.1811 58.4164 55.8032 57.967C55.4252 57.5176 54.8756 57.248 54.2889 57.2243Z" fill="#E0CBAF"/>
<path d="M62.8957 49.6552H28.1371C27.223 49.6552 26.4819 48.9141 26.4819 48C26.4819 47.0859 27.223 46.3448 28.1371 46.3448H62.8957C63.8099 46.3448 64.5509 47.0859 64.5509 48C64.5509 48.9141 63.8099 49.6552 62.8957 49.6552Z" fill="#E0CBAF"/>
<path d="M71.1717 49.6552H69.5165C68.6024 49.6552 67.8613 48.9141 67.8613 48C67.8613 47.0859 68.6024 46.3448 69.5165 46.3448H71.1717C72.0858 46.3448 72.8269 47.0859 72.8269 48C72.8269 48.9141 72.0858 49.6552 71.1717 49.6552Z" fill="#E0CBAF"/>
<path d="M31.4474 43.0345H28.1371C27.223 43.0345 26.4819 42.2934 26.4819 41.3793C26.4819 40.4652 27.223 39.7241 28.1371 39.7241H31.4474C32.3616 39.7241 33.1026 40.4652 33.1026 41.3793C33.1026 42.2934 32.3616 43.0345 31.4474 43.0345Z" fill="#E0CBAF"/>
<path d="M52.9648 43.0345H38.0683C37.1541 43.0345 36.4131 42.2934 36.4131 41.3793C36.4131 40.4652 37.1541 39.7241 38.0683 39.7241H52.9648C53.8789 39.7241 54.62 40.4652 54.62 41.3793C54.62 42.2934 53.8789 43.0345 52.9648 43.0345Z" fill="#E0CBAF"/>
<path d="M71.1716 43.0345H59.5853C58.6712 43.0345 57.9302 42.2934 57.9302 41.3793C57.9302 40.4652 58.6712 39.7241 59.5853 39.7241H71.1716C72.0857 39.7241 72.8267 40.4652 72.8267 41.3793C72.8267 42.2934 72.0857 43.0345 71.1716 43.0345Z" fill="#E0CBAF"/>
<path d="M61.2405 36.4137H28.1371C27.223 36.4137 26.4819 35.6727 26.4819 34.7586C26.4819 33.8444 27.223 33.1034 28.1371 33.1034H61.2405C62.1547 33.1034 62.8957 33.8444 62.8957 34.7586C62.8957 35.6727 62.1547 36.4137 61.2405 36.4137Z" fill="#E0CBAF"/>
<path d="M71.1721 36.4137H67.8617C66.9476 36.4137 66.2065 35.6727 66.2065 34.7586C66.2065 33.8444 66.9476 33.1034 67.8617 33.1034H71.1721C72.0862 33.1034 72.8272 33.8444 72.8272 34.7586C72.8272 35.6727 72.0862 36.4137 71.1721 36.4137Z" fill="#E0CBAF"/>
<path d="M38.0679 19.8621H44.6886V23.1724H38.0679V19.8621Z" fill="#E0CBAF"/>
<path d="M54.6201 19.8621H61.2408V23.1724H54.6201V19.8621Z" fill="#E0CBAF"/>
</g>
<defs>
<clipPath id="clip0">
<rect width="96" height="96" fill="white"/>
</clipPath>
</defs>
</svg>
