<svg width="128" height="128" viewBox="0 0 128 128" fill="none" xmlns="http://www.w3.org/2000/svg">
<rect width="128" height="128" rx="64" fill="#E0CBAF"/>
<path d="M91.3379 79.8207C88.0648 75.4387 83.8148 71.8805 78.9256 69.4289C74.0364 66.9774 68.6428 65.7 63.1734 65.6982C57.7039 65.6965 52.3095 66.9705 47.4188 69.4191C42.528 71.8676 38.2758 75.4231 35 79.803C38.2591 84.2052 42.5044 87.7824 47.3955 90.2479C52.2865 92.7134 57.6872 93.9985 63.1645 94.0002C68.6418 94.0019 74.0433 92.7202 78.9359 90.2578C83.8285 87.7954 88.076 84.2208 91.3379 79.8207V79.8207Z" fill="#DC9563"/>
<path d="M63.1738 61.1698C70.6765 61.1698 76.7587 55.0877 76.7587 47.5849C76.7587 40.0822 70.6765 34 63.1738 34C55.671 34 49.5889 40.0822 49.5889 47.5849C49.5889 55.0877 55.671 61.1698 63.1738 61.1698Z" fill="#DC9563"/>
</svg>
