<svg width="139" height="26" viewBox="0 0 139 26" fill="none" xmlns="http://www.w3.org/2000/svg">
<path d="M12.096 8.152C11.616 7.624 10.976 7.192 10.176 6.856C9.376 6.504 8.464 6.328 7.44 6.328C5.936 6.328 4.84 6.616 4.152 7.192C3.464 7.752 3.12 8.52 3.12 9.496C3.12 10.168 3.288 10.696 3.624 11.08C3.96 11.464 4.472 11.784 5.16 12.04C5.864 12.28 6.76 12.52 7.848 12.76C9.064 13.016 10.112 13.32 10.992 13.672C11.872 14.024 12.552 14.504 13.032 15.112C13.512 15.704 13.752 16.512 13.752 17.536C13.752 18.576 13.488 19.44 12.96 20.128C12.432 20.816 11.704 21.328 10.776 21.664C9.848 21.984 8.792 22.144 7.608 22.144C4.952 22.144 2.672 21.32 0.768 19.672L1.608 18.304C2.216 18.944 3.048 19.496 4.104 19.96C5.176 20.424 6.36 20.656 7.656 20.656C9 20.656 10.056 20.408 10.824 19.912C11.592 19.416 11.976 18.68 11.976 17.704C11.976 17 11.784 16.44 11.4 16.024C11.016 15.592 10.44 15.24 9.672 14.968C8.904 14.696 7.96 14.432 6.84 14.176C5.656 13.904 4.656 13.6 3.84 13.264C3.04 12.928 2.432 12.488 2.016 11.944C1.6 11.4 1.392 10.664 1.392 9.736C1.392 8.68 1.648 7.792 2.16 7.072C2.688 6.336 3.408 5.784 4.32 5.416C5.232 5.032 6.28 4.84 7.464 4.84C8.584 4.84 9.592 5.016 10.488 5.368C11.384 5.704 12.192 6.184 12.912 6.808L12.096 8.152ZM28.7867 6.448H22.7147V22H21.0347V6.448H14.9627V4.96H28.7867V6.448ZM34.9785 4.96H36.3945L43.4745 22H41.6985L39.4905 16.672H31.8345L29.6505 22H27.8505L34.9785 4.96ZM39.1065 15.352L35.6745 6.928L32.1945 15.352H39.1065ZM45.9173 22V4.96H53.1173C53.8533 4.96 54.5253 5.112 55.1333 5.416C55.7573 5.72 56.2933 6.136 56.7413 6.664C57.1893 7.176 57.5333 7.752 57.7733 8.392C58.0293 9.016 58.1573 9.656 58.1573 10.312C58.1573 11.144 57.9973 11.92 57.6773 12.64C57.3733 13.36 56.9333 13.968 56.3573 14.464C55.7813 14.96 55.1173 15.28 54.3653 15.424L58.5413 22H56.6453L52.6373 15.712H47.5973V22H45.9173ZM47.5973 14.224H53.1653C53.8373 14.224 54.4213 14.04 54.9173 13.672C55.4133 13.288 55.7973 12.8 56.0693 12.208C56.3413 11.616 56.4773 10.984 56.4773 10.312C56.4773 9.624 56.3173 8.992 55.9973 8.416C55.6933 7.824 55.2773 7.352 54.7493 7C54.2213 6.632 53.6453 6.448 53.0213 6.448H47.5973V14.224Z" fill="#383B25"/>
<path d="M69.816 4.96H74.112L75.672 10.216L77.256 4.96H81.552L78.672 13.096L79.896 16.576L83.568 4.96H88.656L82.224 22H78.168L75.672 15.904L73.2 22H69.144L62.712 4.96H67.776L71.472 16.576L72.648 13.096L69.816 4.96ZM89.8234 22V4.96H94.5034V22H89.8234ZM97.4406 22V4.96H105.265C106.097 4.96 106.865 5.128 107.569 5.464C108.273 5.8 108.881 6.256 109.393 6.832C109.905 7.392 110.297 8.024 110.569 8.728C110.857 9.432 111.001 10.144 111.001 10.864C111.001 11.84 110.785 12.76 110.353 13.624C109.921 14.488 109.321 15.192 108.553 15.736L112.153 22H107.017L104.017 16.768H102.121V22H97.4406ZM102.121 12.688H105.073C105.361 12.688 105.625 12.528 105.865 12.208C106.121 11.888 106.249 11.44 106.249 10.864C106.249 10.272 106.105 9.824 105.817 9.52C105.529 9.2 105.241 9.04 104.953 9.04H102.121V12.688ZM125.78 17.92V22H113.636V4.96H125.564V9.04H118.316V11.44H124.508V15.232H118.316V17.92H125.78Z" fill="#383B25"/>
</svg>
