<svg width="217" height="30" viewBox="0 0 217 30" fill="none" xmlns="http://www.w3.org/2000/svg">
<path d="M19.6394 5.74203C18.8072 4.82663 17.6976 4.07767 16.3107 3.49515C14.9237 2.88488 13.3426 2.57975 11.5673 2.57975C8.95978 2.57975 7.05964 3.07906 5.86685 4.07767C4.67406 5.04854 4.07767 6.38003 4.07767 8.07212C4.07767 9.23717 4.36893 10.1526 4.95146 10.8183C5.53398 11.4841 6.42164 12.0388 7.61442 12.4827C8.83495 12.8988 10.3883 13.3148 12.2746 13.7309C14.3828 14.1748 16.1997 14.7018 17.7254 15.3121C19.251 15.9223 20.43 16.7545 21.2621 17.8086C22.0943 18.835 22.5104 20.2358 22.5104 22.0111C22.5104 23.8141 22.0527 25.3121 21.1373 26.5049C20.2219 27.6976 18.9598 28.5853 17.3509 29.1678C15.742 29.7226 13.9112 30 11.8585 30C7.25381 30 3.30097 28.5714 0 25.7143L1.45631 23.3426C2.5104 24.4521 3.95284 25.4092 5.78363 26.2136C7.64216 27.018 9.69487 27.4202 11.9417 27.4202C14.2718 27.4202 16.1026 26.9903 17.4341 26.1304C18.7656 25.2705 19.4313 23.9945 19.4313 22.3024C19.4313 21.0818 19.0985 20.111 18.4327 19.3897C17.767 18.6408 16.7684 18.0305 15.4369 17.5589C14.1054 17.0874 12.4688 16.6297 10.527 16.1859C8.47434 15.7143 6.74064 15.1872 5.32594 14.6047C3.93897 14.0222 2.88488 13.2594 2.16366 12.3162C1.44244 11.3731 1.08183 10.0971 1.08183 8.48821C1.08183 6.65742 1.52566 5.11789 2.41331 3.86963C3.32871 2.59362 4.57698 1.63662 6.15811 0.998613C7.73925 0.332871 9.55617 0 11.6089 0C13.5506 0 15.2982 0.305132 16.8516 0.915396C18.405 1.49792 19.8058 2.3301 21.0541 3.41193L19.6394 5.74203Z" fill="#383B25"/>
<path d="M48.5761 2.7878H38.049V29.7503H35.1364V2.7878H24.6094V0.208044H48.5761V2.7878Z" fill="#383B25"/>
<path d="M59.3108 0.208044H61.7658L74.0404 29.7503H70.9613L67.1333 20.5132H53.8601L50.0737 29.7503H46.953L59.3108 0.208044ZM66.4676 18.2247L60.5175 3.61997L54.4842 18.2247H66.4676Z" fill="#383B25"/>
<path d="M78.2754 29.7503V0.208044H90.7581C92.0341 0.208044 93.1991 0.471567 94.2532 0.998613C95.335 1.52566 96.2643 2.24688 97.041 3.16227C97.8177 4.04993 98.4141 5.04854 98.8302 6.15811C99.274 7.23995 99.4959 8.34951 99.4959 9.48682C99.4959 10.9293 99.2185 12.2746 98.6637 13.5229C98.1367 14.7712 97.3739 15.8252 96.3753 16.6852C95.3766 17.5451 94.2255 18.0999 92.9217 18.3495L100.162 29.7503H96.8745L89.9259 18.8488H81.188V29.7503H78.2754ZM81.188 16.2691H90.8413C92.0063 16.2691 93.0188 15.9501 93.8787 15.3121C94.7386 14.6463 95.4044 13.8003 95.8759 12.7739C96.3475 11.7476 96.5833 10.6519 96.5833 9.48682C96.5833 8.29404 96.3059 7.19833 95.7511 6.19972C95.2241 5.17337 94.5029 4.35506 93.5875 3.7448C92.6721 3.1068 91.6734 2.7878 90.5916 2.7878H81.188V16.2691Z" fill="#383B25"/>
<path d="M119.709 0.208042H127.157L129.861 9.32039L132.608 0.208042H140.056L135.062 14.3134L137.185 20.3467L143.551 0.208042H152.372L141.221 29.7503H134.189L129.861 19.1817L125.576 29.7503H118.544L107.393 0.208042H116.172L122.58 20.3467L124.619 14.3134L119.709 0.208042Z" fill="#E7482A"/>
<path d="M154.396 29.7503V0.208042H162.509V29.7503H154.396Z" fill="#E7482A"/>
<path d="M167.602 29.7503V0.208042H181.166C182.609 0.208042 183.94 0.499305 185.161 1.08183C186.381 1.66435 187.435 2.45492 188.323 3.45353C189.21 4.42441 189.89 5.52011 190.362 6.74063C190.861 7.96116 191.111 9.19556 191.111 10.4438C191.111 12.1359 190.736 13.7309 189.987 15.2288C189.238 16.7268 188.198 17.9473 186.867 18.8904L193.108 29.7503H184.204L179.002 20.6796H175.715V29.7503H167.602ZM175.715 13.6061H180.833C181.333 13.6061 181.79 13.3287 182.206 12.7739C182.65 12.2191 182.872 11.4424 182.872 10.4438C182.872 9.41747 182.622 8.64077 182.123 8.11373C181.624 7.55894 181.124 7.28155 180.625 7.28155H175.715V13.6061Z" fill="#E7482A"/>
<path d="M216.734 22.6768V29.7503H195.679V0.208042H216.359V7.28155H203.793V11.4424H214.528V18.0166H203.793V22.6768H216.734Z" fill="#E7482A"/>
</svg>
