<svg width="96" height="96" viewBox="0 0 96 96" fill="none" xmlns="http://www.w3.org/2000/svg">
<g clip-path="url(#clip0)">
<path d="M59.5765 18.6047C58.315 18.6047 57.0749 18.2807 55.9747 17.6634L39.2997 8.30922C38.1995 7.69216 36.9592 7.36792 35.6979 7.36792H7.36173C3.296 7.36792 0 10.6639 0 14.7297V81.2696C0 85.3353 3.296 88.6313 7.36173 88.6313H88.6383C92.704 88.6313 96 85.3353 96 81.2696V25.9665C96 21.9007 92.704 18.6047 88.6383 18.6047H59.5765Z" fill="#DC9563"/>
<path d="M24.059 79.0934C18.538 79.0934 14.0625 74.6178 14.0625 69.0969V7.36792H7.36173C3.296 7.36792 0 10.6639 0 14.7297V81.2696C0 85.3353 3.296 88.6313 7.36173 88.6313H88.6383C92.704 88.6313 96 85.3353 96 81.2696V79.0936H24.059V79.0934Z" fill="#DC9563"/>
<path d="M47.1863 77.0832C61.2421 77.0832 72.6367 65.6887 72.6367 51.6328C72.6367 37.5769 61.2421 26.1824 47.1863 26.1824C33.1304 26.1824 21.7358 37.5769 21.7358 51.6328C21.7358 65.6887 33.1304 77.0832 47.1863 77.0832Z" fill="#DC9563"/>
<path d="M68.4307 43.6103L64.1439 39.2381C63.837 38.925 63.3344 38.92 63.0214 39.2271L43.0516 58.807C42.7333 59.1191 42.2204 59.1079 41.916 58.7823L38.8465 55.4993C38.5471 55.1791 38.0447 55.1621 37.7246 55.4615L33.2517 59.6431C32.9315 59.9424 32.9145 60.4448 33.2139 60.765L39.5349 67.5262C39.7608 67.768 40.017 67.9733 40.2919 68.1472H44.4151C44.6418 68.0033 44.8557 67.8374 45.0504 67.6463L68.4199 44.7328C68.7328 44.4259 68.7378 43.9234 68.4307 43.6103Z" fill="white"/>
<path d="M27.4786 26.8361C26.6701 28.1959 25.5472 29.3242 24.0879 30.205C23.5206 30.5475 23.52 31.3799 24.1028 31.6953C25.5459 32.4758 26.7038 33.628 27.5459 35.1918C27.8599 35.7749 28.6792 35.7949 29.0346 35.2361C29.9326 33.8242 31.1277 32.6894 32.5701 31.7851C33.12 31.4402 33.1183 30.6329 32.5548 30.3106C30.9722 29.4053 29.7689 28.2528 28.95 26.8438C28.6254 26.2848 27.809 26.2803 27.4786 26.8361Z" fill="#DC9563"/>
<path d="M80.5024 68.5472C79.5181 70.203 78.1508 71.5766 76.374 72.6492C75.6834 73.0662 75.6824 74.08 76.3922 74.4638C78.1491 75.4141 79.5592 76.8171 80.5845 78.7211C80.9668 79.4311 81.9644 79.4556 82.3972 78.7751C83.4906 77.056 84.9456 75.6742 86.7019 74.5731C87.3716 74.1532 87.3695 73.1703 86.6834 72.7778C84.7565 71.6755 83.2912 70.2722 82.2942 68.5567C81.8987 67.876 80.9047 67.8706 80.5024 68.5472Z" fill="#DC9563"/>
</g>
<defs>
<clipPath id="clip0">
<rect width="96" height="96" fill="white"/>
</clipPath>
</defs>
</svg>
