<svg width="72" height="72" viewBox="0 0 72 72" fill="none" xmlns="http://www.w3.org/2000/svg">
<g clip-path="url(#clip0)">
<path d="M64.4356 16.524L37.2271 0.337358C36.471 -0.112361 35.5292 -0.112361 34.7731 0.337358L7.56455 16.524C6.83738 16.9567 6.3916 17.7405 6.3916 18.5867V27.8267C6.3916 47.2884 17.636 65.0637 35.1335 71.8382C35.6905 72.0539 36.309 72.0542 36.8666 71.8382C54.3217 65.0806 65.6084 47.3438 65.6084 27.8267V18.5867C65.6085 17.7404 65.1629 16.9567 64.4356 16.524ZM47.8571 30.607L32.8152 45.6491C31.8779 46.5864 30.3583 46.5864 29.4211 45.6491L24.142 40.3702C23.2047 39.4331 23.2047 37.9134 24.142 36.9761C25.0793 36.039 26.599 36.039 27.5361 36.9761L31.118 40.5579L44.463 27.2129C45.4001 26.2758 46.9199 26.2758 47.8571 27.2129C48.7945 28.1503 48.7945 29.6699 47.8571 30.607Z" fill="#D0AA9A"/>
</g>
<defs>
<clipPath id="clip0">
<rect width="72" height="72" fill="white"/>
</clipPath>
</defs>
</svg>
