<svg width="96" height="96" viewBox="0 0 96 96" fill="none" xmlns="http://www.w3.org/2000/svg">
<path d="M48 0C46.4468 0 45.1875 1.25925 45.1875 2.8125V14.0625C45.1875 15.6158 46.4468 16.875 48 16.875C65.1622 16.875 79.125 30.8376 79.125 48C79.125 65.1624 65.1622 79.125 48 79.125C30.8377 79.125 16.875 65.1624 16.875 48C16.875 46.4468 15.6158 45.1875 14.0625 45.1875H2.8125C1.25925 45.1875 0 46.4468 0 48C0 74.4283 21.5702 96 48 96C74.4283 96 96 74.43 96 48C96 21.5717 74.4298 0 48 0Z" fill="#DC9563"/>
<path d="M48 22.5C46.4468 22.5 45.1875 23.7592 45.1875 25.3125V36.5625C45.1875 38.1157 46.4468 39.375 48 39.375C52.6753 39.375 56.625 43.3247 56.625 48C56.625 52.6753 52.6753 56.625 48 56.625C43.3247 56.625 39.375 52.6753 39.375 48C39.375 46.4468 38.1157 45.1875 36.5625 45.1875H25.3125C23.7593 45.1875 22.5 46.4468 22.5 48C22.5 61.9993 34.0547 73.5 48 73.5C61.9993 73.5 73.5 61.9453 73.5 48C73.5 34.0007 61.9453 22.5 48 22.5ZM14.0625 16.875H36.75C38.3032 16.875 39.5625 15.6158 39.5625 14.0625C39.5625 12.5092 38.3032 11.25 36.75 11.25H14.0625C12.5092 11.25 11.25 12.5092 11.25 14.0625C11.25 15.6158 12.5092 16.875 14.0625 16.875ZM2.8125 16.875C4.36575 16.875 5.625 15.6158 5.625 14.0625C5.625 12.5092 4.36575 11.25 2.8125 11.25C1.25925 11.25 0 12.5092 0 14.0625C0 15.6158 1.25925 16.875 2.8125 16.875ZM39.5625 25.3125C39.5625 23.7592 38.3032 22.5 36.75 22.5H2.8125C1.25925 22.5 0 23.7592 0 25.3125C0 26.8658 1.25925 28.125 2.8125 28.125H36.75C38.3032 28.125 39.5625 26.8658 39.5625 25.3125Z" fill="#B35D47"/>
</svg>
