<svg width="36" height="36" viewBox="0 0 36 36" fill="none" xmlns="http://www.w3.org/2000/svg">
<path d="M35.5545 17.138L31.7025 14.4224C31.0046 13.9304 30.04 14.4314 30.04 15.2844V16.9453H11.545C10.9625 16.9453 10.4902 17.4175 10.4902 18.0001C10.4902 18.5826 10.9625 19.0547 11.545 19.0547H30.0398V20.7156C30.0398 21.5743 31.0096 22.0659 31.7023 21.5776L35.5542 18.862C36.1425 18.4476 36.1544 17.5618 35.5545 17.138Z" fill="#E7482A"/>
<path d="M30.2675 24.7723C29.7634 24.4808 29.1181 24.6529 28.8264 25.1572C26.3488 29.4404 21.7176 32.3158 16.4252 32.3158C8.53151 32.3158 2.10945 25.8937 2.10945 18C2.10945 10.1063 8.53151 3.68427 16.4252 3.68427C21.7211 3.68427 26.3502 6.56238 28.8263 10.8427C29.118 11.347 29.7634 11.5191 30.2674 11.2276C30.7716 10.936 30.9439 10.2907 30.6523 9.78648C27.8028 4.86053 22.4809 1.57483 16.4252 1.57483C7.34695 1.57483 0 8.92101 0 18C0 27.0783 7.34618 34.4253 16.4252 34.4253C22.4835 34.4253 27.8041 31.1372 30.6524 26.2135C30.944 25.7092 30.7717 25.0641 30.2675 24.7723Z" fill="#E7482A"/>
</svg>
